<svg t="1584950910217" class="icon" viewBox="0 0 1024 1024" version="1.1" xmlns="http://www.w3.org/2000/svg" p-id="2034" width="1024" height="1024"><path d="M511.60636457 66.16833858c246.10096714 0 446.38275154 200.28178439 446.38275154 446.38275154S757.70733041 958.93384165 511.60636457 958.93384165 65.22361303 758.65205597 65.22361303 512.55109012s200.28178439-446.38275154 446.38275154-446.38275154z m0 828.99653875c210.98867225 0 382.61378723-171.62511367 382.61378723-382.61378721s-171.62511367-382.61378723-382.61378723-382.61378722-382.61378723 171.62511367-382.61378723 382.61378722 171.62511367 382.61378723 382.61378723 382.61378721z m0 0" p-id="2035" fill="#707070"></path><path d="M732.35719913 500.26965926c0-0.15745469-0.15745469-0.3149081-0.3149081-0.31490809-1.57454172-3.62144751-3.62144751-7.08544033-6.61307756-10.07707038h-0.15745469v-0.15745469L567.18770831 330.84890477c-12.43888426-12.43888426-32.59302633-12.59633895-45.03191058 0-12.43888426 12.43888426-12.43888426 32.59302633 0 45.03191058l102.97506949 103.28997759h-303.88667136c-17.63487349 0-31.80575546 14.32833536-31.80575417 31.80575416 0 17.63487349 14.32833536 31.80575546 31.80575417 31.80575546h305.61866779L520.89616409 647.48936719c-12.59633895 12.43888426-12.59633895 32.59302633-0.31490808 45.03191188 6.14071479 6.29816947 14.48579005 9.44725421 22.67340933 9.44725291 8.03016589 0 16.21778647-3.14908474 22.35850125-9.28979952l159.65859219-157.92659578c9.44725421-9.13234613 11.80906809-22.98831742 7.08544035-34.48247742z m0 0" p-id="2036" fill="#707070"></path></svg>